<svg width="40" height="40" viewBox="0 0 40 40" fill="none" xmlns="http://www.w3.org/2000/svg" xmlns:xlink="http://www.w3.org/1999/xlink">
<rect  x="0.308" y="14.59" width="39.385" height="10.815" fill="#F0F5F9"/>
<rect  x="0.308" y="7.496" width="39.385" height="8.335" fill="#F28623"/>
<rect  x="0.308" y="24.168" width="39.385" height="8.335" fill="#65B54E"/>
<path d="M19.998,23.194C21.762,23.194 23.192,21.764 23.192,20C23.192,18.236 21.762,16.806 19.998,16.806C18.234,16.806 16.804,18.236 16.804,20C16.804,21.764 18.234,23.194 19.998,23.194Z" transform="rotate(-26.56 19.998 20)" fill="#00247D"/>
<path d="M21.265,22.575L21.372,22.313C21.392,22.266 21.426,22.225 21.468,22.197C21.511,22.169 21.561,22.153 21.612,22.153L21.895,22.153C21.964,22.153 22.03,22.126 22.078,22.077C22.127,22.029 22.154,21.963 22.154,21.895L22.154,21.612C22.154,21.56 22.169,21.51 22.198,21.467C22.226,21.425 22.267,21.391 22.314,21.372L22.575,21.264C22.639,21.237 22.689,21.187 22.716,21.124C22.742,21.06 22.743,20.989 22.717,20.925L22.606,20.664C22.587,20.617 22.583,20.565 22.593,20.515C22.604,20.465 22.628,20.42 22.665,20.384L22.865,20.184C22.889,20.16 22.908,20.131 22.921,20.1C22.934,20.068 22.941,20.035 22.941,20.001C22.941,19.967 22.934,19.933 22.921,19.902C22.908,19.87 22.889,19.842 22.865,19.818L22.665,19.618C22.629,19.581 22.604,19.535 22.594,19.484C22.585,19.434 22.59,19.382 22.609,19.335L22.717,19.073C22.73,19.042 22.737,19.008 22.737,18.974C22.737,18.94 22.73,18.906 22.717,18.874C22.704,18.843 22.684,18.814 22.66,18.79C22.636,18.766 22.607,18.747 22.575,18.735L22.314,18.627C22.267,18.607 22.226,18.574 22.198,18.531C22.169,18.488 22.154,18.438 22.154,18.387L22.154,18.104C22.154,18.035 22.127,17.97 22.078,17.921C22.03,17.873 21.964,17.845 21.895,17.845L21.612,17.845C21.561,17.845 21.511,17.83 21.468,17.801C21.426,17.773 21.392,17.733 21.372,17.685L21.265,17.424C21.238,17.361 21.188,17.31 21.124,17.284C21.061,17.257 20.99,17.257 20.926,17.282L20.665,17.393C20.617,17.412 20.566,17.417 20.516,17.406C20.466,17.396 20.42,17.371 20.385,17.335L20.185,17.135C20.161,17.111 20.132,17.091 20.101,17.078C20.069,17.065 20.036,17.059 20.002,17.059C19.968,17.059 19.934,17.065 19.902,17.078C19.871,17.091 19.843,17.111 19.819,17.135L19.619,17.335C19.582,17.371 19.536,17.395 19.485,17.405C19.435,17.415 19.383,17.41 19.335,17.39L19.077,17.282C19.045,17.269 19.012,17.263 18.978,17.263C18.944,17.263 18.91,17.269 18.878,17.283C18.847,17.296 18.818,17.315 18.794,17.339C18.77,17.363 18.751,17.392 18.739,17.424L18.631,17.685C18.611,17.733 18.578,17.773 18.535,17.801C18.492,17.83 18.442,17.845 18.391,17.845L18.108,17.845C18.039,17.845 17.973,17.873 17.925,17.921C17.877,17.97 17.849,18.035 17.849,18.104L17.849,18.387C17.849,18.438 17.834,18.488 17.805,18.531C17.777,18.574 17.737,18.607 17.689,18.627L17.428,18.735C17.364,18.761 17.314,18.812 17.288,18.875C17.261,18.938 17.261,19.009 17.286,19.073L17.397,19.335C17.416,19.382 17.42,19.434 17.41,19.483C17.4,19.533 17.375,19.579 17.339,19.615L17.139,19.815C17.114,19.839 17.095,19.867 17.082,19.899C17.069,19.93 17.063,19.964 17.063,19.998C17.063,20.032 17.069,20.065 17.082,20.097C17.095,20.128 17.114,20.157 17.139,20.181L17.339,20.381C17.374,20.417 17.399,20.464 17.409,20.514C17.419,20.564 17.413,20.616 17.394,20.664L17.286,20.925C17.273,20.957 17.266,20.991 17.267,21.025C17.267,21.059 17.273,21.093 17.287,21.124C17.3,21.156 17.319,21.184 17.343,21.208C17.367,21.232 17.396,21.251 17.428,21.264L17.689,21.372C17.737,21.391 17.777,21.425 17.805,21.467C17.834,21.51 17.849,21.56 17.849,21.612L17.849,21.895C17.849,21.963 17.877,22.029 17.925,22.077C17.973,22.126 18.039,22.153 18.108,22.153L18.391,22.153C18.442,22.153 18.492,22.169 18.535,22.197C18.578,22.225 18.611,22.266 18.631,22.313L18.739,22.575C18.765,22.638 18.815,22.688 18.879,22.715C18.942,22.741 19.013,22.742 19.077,22.716L19.339,22.605C19.386,22.586 19.438,22.582 19.487,22.592C19.537,22.603 19.583,22.628 19.619,22.664L19.819,22.864C19.843,22.888 19.871,22.907 19.902,22.92C19.934,22.933 19.968,22.94 20.002,22.94C20.036,22.94 20.069,22.933 20.101,22.92C20.132,22.907 20.161,22.888 20.185,22.864L20.385,22.664C20.421,22.628 20.468,22.603 20.518,22.594C20.568,22.584 20.62,22.589 20.668,22.608L20.929,22.716C20.993,22.742 21.063,22.741 21.126,22.714C21.189,22.688 21.239,22.638 21.265,22.575Z" fill="#F0F5F9"/>
<path d="M20.018,17.465L20,17.352L19.981,17.465C19.861,18.248 19.861,19.043 19.981,19.825L20,19.939L20.018,19.825C20.138,19.043 20.138,18.248 20.018,17.465ZM20.018,20.176L20,20.062L19.981,20.176C19.861,20.958 19.861,21.754 19.981,22.536L20,22.65L20.018,22.536C20.138,21.754 20.138,20.958 20.018,20.176ZM22.535,20.019L22.649,20.001L22.535,19.982C21.753,19.862 20.957,19.862 20.175,19.982L20.061,20.001L20.175,20.019C20.957,20.139 21.753,20.139 22.535,20.019ZM19.824,20.019L19.938,20.001L19.824,19.982C19.042,19.862 18.247,19.862 17.464,19.982L17.351,20.001L17.464,20.019C18.247,20.139 19.042,20.139 19.824,20.019ZM21.806,18.219L21.874,18.127L21.781,18.195C21.14,18.66 20.576,19.224 20.111,19.865L20.043,19.958L20.135,19.89C20.776,19.424 21.34,18.86 21.806,18.219ZM19.889,20.136L19.957,20.044L19.864,20.112C19.223,20.577 18.659,21.141 18.194,21.782L18.126,21.875L18.218,21.807C18.859,21.341 19.423,20.777 19.889,20.136ZM21.781,21.807L21.874,21.875L21.806,21.782C21.34,21.141 20.776,20.577 20.135,20.112L20.043,20.044L20.111,20.136C20.576,20.777 21.14,21.341 21.781,21.807ZM19.864,19.89L19.957,19.958L19.889,19.865C19.423,19.224 18.859,18.66 18.218,18.195L18.126,18.127L18.194,18.219C18.659,18.86 19.223,19.424 19.864,19.89ZM19.046,17.65L18.984,17.539L19.012,17.653C19.2,18.423 19.505,19.158 19.917,19.835L19.975,19.933L19.951,19.819C19.762,19.054 19.457,18.322 19.046,17.65ZM20.083,20.155L20.024,20.056L20.049,20.17C20.237,20.939 20.542,21.675 20.954,22.352L21.015,22.45L20.988,22.336C20.8,21.567 20.495,20.831 20.083,20.155ZM22.351,19.047L22.449,18.985L22.335,19.013C21.566,19.201 20.83,19.506 20.154,19.918L20.055,19.976L20.169,19.952C20.938,19.764 21.674,19.459 22.351,19.047ZM19.846,20.084L19.944,20.025L19.831,20.05C19.061,20.237 18.325,20.543 17.649,20.955L17.551,21.016L17.664,20.988C18.434,20.801 19.17,20.496 19.846,20.084ZM20.988,17.665L21.015,17.539L20.954,17.638C20.542,18.314 20.237,19.05 20.049,19.819L20.024,19.933L20.083,19.835C20.494,19.162 20.799,18.431 20.988,17.665ZM19.951,20.17L19.975,20.056L19.917,20.155C19.505,20.831 19.2,21.567 19.012,22.336L18.984,22.462L19.046,22.364C19.459,21.684 19.764,20.944 19.951,20.17ZM22.335,20.988L22.449,21.016L22.351,20.955C21.674,20.543 20.938,20.237 20.169,20.05L20.055,20.025L20.154,20.084C20.83,20.496 21.566,20.801 22.335,20.988ZM19.831,19.952L19.944,19.976L19.846,19.918C19.17,19.506 18.434,19.201 17.664,19.013L17.538,18.985L17.637,19.047C18.317,19.46 19.057,19.765 19.831,19.952Z" fill="#00247D"/>
<circle cx="20" cy="20.001" r="0.634" fill="#00247D"/>
</svg>
