<svg width="168" height="148" viewBox="0 0 168 148" fill="none" xmlns="http://www.w3.org/2000/svg" xmlns:xlink="http://www.w3.org/1999/xlink">
<path d="M126.209,131.043L125.332,131.523L126.209,131.043ZM98.985,94.829L77.612,130.385L79.327,131.416L100.699,95.86L98.985,94.829ZM81.898,137.961L122.699,137.961L122.699,135.961L81.898,135.961L81.898,137.961ZM127.087,130.564L107.658,95.008L105.903,95.967L125.332,131.523L127.087,130.564ZM122.699,137.961C126.496,137.961 128.907,133.896 127.087,130.564L125.332,131.523C126.424,133.522 124.977,135.961 122.699,135.961L122.699,137.961ZM77.612,130.385C75.609,133.718 78.01,137.961 81.898,137.961L81.898,135.961C79.565,135.961 78.125,133.415 79.327,131.416L77.612,130.385ZM100.699,95.86C101.893,93.874 104.791,93.933 105.903,95.967L107.658,95.008C105.806,91.619 100.974,91.519 98.985,94.829L100.699,95.86Z" transform="rotate(-66.036 102.135 113.164)" fill="#FBBC05"/>
<path d="M127.402,80.921L139.401,61.988C141.011,59.447 144.744,59.526 146.246,62.132L157.155,81.066C158.691,83.732 156.766,87.063 153.689,87.063L130.78,87.063C127.627,87.063 125.714,83.585 127.402,80.921Z" transform="rotate(-81.765 142.06 71.731)" fill="#0D5D50"/>
<path d="M10.456,73.209L42.941,21.953C44.551,19.412 48.284,19.491 49.786,22.097L79.318,73.353C80.854,76.02 78.93,79.35 75.852,79.35L13.835,79.35C10.682,79.35 8.768,75.872 10.456,73.209Z" transform="rotate(-129.878 44.668 47.858)" fill="#0D5D50"/>
</svg>
