<svg width="168" height="224" viewBox="0 0 168 224" fill="none" xmlns="http://www.w3.org/2000/svg" xmlns:xlink="http://www.w3.org/1999/xlink">
<path d="M100.661,163.391L99.783,163.87L100.661,163.391ZM52.849,89.501L8.83,162.733L10.544,163.763L54.563,90.532L52.849,89.501ZM13.116,170.309L97.151,170.309L97.151,168.309L13.116,168.309L13.116,170.309ZM101.538,162.911L61.522,89.68L59.767,90.639L99.783,163.87L101.538,162.911ZM97.151,170.309C100.948,170.309 103.359,166.243 101.538,162.911L99.783,163.87C100.876,165.869 99.429,168.309 97.151,168.309L97.151,170.309ZM8.83,162.733C6.827,166.065 9.227,170.309 13.116,170.309L13.116,168.309C10.783,168.309 9.342,165.763 10.544,163.763L8.83,162.733ZM54.563,90.532C55.757,88.546 58.655,88.605 59.767,90.639L61.522,89.68C59.67,86.29 54.838,86.191 52.849,89.501L54.563,90.532Z" transform="rotate(-17.923 54.97 126.673)" fill="#FFFFFF"/>
<path d="M131.854,211.913L132.731,211.433L131.854,211.913ZM93.759,211.77L92.902,211.255L93.759,211.77ZM109.222,184.104L92.902,211.255L94.616,212.285L110.936,185.135L109.222,184.104ZM97.187,218.831L128.344,218.831L128.344,216.831L97.187,216.831L97.187,218.831ZM132.731,211.433L117.895,184.283L116.14,185.242L130.976,212.392L132.731,211.433ZM128.344,218.831C132.14,218.831 134.552,214.765 132.731,211.433L130.976,212.392C132.069,214.392 130.622,216.831 128.344,216.831L128.344,218.831ZM92.902,211.255C90.899,214.588 93.299,218.831 97.187,218.831L97.187,216.831C94.854,216.831 93.414,214.285 94.616,212.285L92.902,211.255ZM110.936,185.135C112.13,183.149 115.029,183.208 116.14,185.242L117.895,184.283C116.043,180.893 111.211,180.794 109.222,184.104L110.936,185.135Z" transform="rotate(-17.923 112.602 198.236)" fill="#FFFFFF"/>
<g filter="url(#filter2411_1079)">
<path d="M31.502,121.369L87.502,33.011C89.112,30.47 92.845,30.549 94.347,33.155L145.256,121.514C146.792,124.18 144.868,127.511 141.79,127.511L34.881,127.511C31.728,127.511 29.814,124.032 31.502,121.369Z" transform="rotate(-81.765 88.161 77.467)" fill="#FFFFFF"/>
</g>
<g filter="url(#filter2411_1080)">
<path d="M37.276,209.457L49.275,190.523C50.885,187.983 54.618,188.061 56.12,190.667L67.029,209.601C68.565,212.268 66.64,215.598 63.563,215.598L40.654,215.598C37.501,215.598 35.588,212.12 37.276,209.457Z" transform="rotate(-81.765 51.934 200.266)" fill="#FFFFFF"/>
</g>
<defs>
<filter id="filter2411_1079" x="5.626953" y="-4.000146" width="86.533613" height="85.46674" filterUnits="userSpaceOnUse" color-interpolation-filters="sRGB">
<feFlood flood-opacity="0" result="BackgroundImageFix"/>
<feColorMatrix in="SourceAlpha" type="matrix" values="0 0 0 0 0 0 0 0 0 0 0 0 0 0 0 0 0 0 127 0" result="hardAlpha"/>
<feMorphology radius="0" operator="dilate" in="SourceAlpha" result="0dropshadow"/>
<feOffset dx="0" dy="4"/>
<feGaussianBlur stdDeviation="2"/>
<feComposite in2="hardAlpha" operator="out"/>
<feColorMatrix type="matrix" values="0 0 0 0 0 0 0 0 0 0 0 0 0 0 0 0 0 0 0.25 0"/>
<feBlend mode="normal" in2="BackgroundImageFix" result="0dropshadow"/>
<feBlend mode="normal" in="SourceGraphic" in2="0dropshadow" result="shape"/>
</filter>
<filter id="filter2411_1080" x="23.874023" y="172.533735" width="32.059564" height="31.732716" filterUnits="userSpaceOnUse" color-interpolation-filters="sRGB">
<feFlood flood-opacity="0" result="BackgroundImageFix"/>
<feColorMatrix in="SourceAlpha" type="matrix" values="0 0 0 0 0 0 0 0 0 0 0 0 0 0 0 0 0 0 127 0" result="hardAlpha"/>
<feMorphology radius="0" operator="dilate" in="SourceAlpha" result="0dropshadow"/>
<feOffset dx="0" dy="4"/>
<feGaussianBlur stdDeviation="2"/>
<feComposite in2="hardAlpha" operator="out"/>
<feColorMatrix type="matrix" values="0 0 0 0 0 0 0 0 0 0 0 0 0 0 0 0 0 0 0.25 0"/>
<feBlend mode="normal" in2="BackgroundImageFix" result="0dropshadow"/>
<feBlend mode="normal" in="SourceGraphic" in2="0dropshadow" result="shape"/>
</filter>
</defs>
</svg>
